# xmcd
#
# Track frame offsets: 
#        150
#        20563
#        36420
#        51397
#        65805
#        83822
#        102121
#        116888
#        133052
#        145977
#        173499
#        192627
#
# Disc length: 2859 seconds
#
# Revision: 0
# Processed by: cddbd v1.5.2PL0 Copyright (c) Steve Scherf et al.
# Submitted via: ExactAudioCopy v0.99pb4
#
DISCID=b60b290c
DTITLE=Nina Kinert - Pets and Friends
DYEAR=2008
DGENRE=Folk/Rock
TTITLE0=Combat Lover
TTITLE1=Golden Rings
TTITLE2=I Shot My Man
TTITLE3=Pets and Friends
TTITLE4=Beast
TTITLE5=The Art Is Hard
TTITLE6=Me Love U Long Time
TTITLE7=Love Affair
TTITLE8=Get Off
TTITLE9=A-Worn Out
TTITLE10=Libras
TTITLE11=The Story Goes
EXTD=
EXTT0=
EXTT1=
EXTT2=
EXTT3=
EXTT4=
EXTT5=
EXTT6=
EXTT7=
EXTT8=
EXTT9=
EXTT10=
EXTT11=
PLAYORDER=
